<?xml version="1.0" encoding="UTF-8"?>
<!DOCTYPE svg PUBLIC "-//W3C//DTD SVG 1.1//EN" "http://www.w3.org/Graphics/SVG/1.1/DTD/svg11.dtd">
<svg xmlns="http://www.w3.org/2000/svg" version="1.1" width="280px" height="180px" style="shape-rendering:geometricPrecision; text-rendering:geometricPrecision; image-rendering:optimizeQuality; fill-rule:evenodd; clip-rule:evenodd" xmlns:xlink="http://www.w3.org/1999/xlink">
<g><path style="opacity:1" fill="#f7f7f6" d="M -0.5,-0.5 C 92.8333,-0.5 186.167,-0.5 279.5,-0.5C 279.5,59.5 279.5,119.5 279.5,179.5C 186.167,179.5 92.8333,179.5 -0.5,179.5C -0.5,119.5 -0.5,59.5 -0.5,-0.5 Z"/></g>
<g><path style="opacity:1" fill="#b93718" d="M 167.5,45.5 C 165.5,45.5 163.5,45.5 161.5,45.5C 161.5,44.5 161.5,43.5 161.5,42.5C 163.5,42.5 165.5,42.5 167.5,42.5C 167.5,43.5 167.5,44.5 167.5,45.5 Z"/></g>
<g><path style="opacity:1" fill="#101010" d="M 159.5,45.5 C 160.167,45.5 160.833,45.5 161.5,45.5C 163.5,45.5 165.5,45.5 167.5,45.5C 167.5,47.1667 167.5,48.8333 167.5,50.5C 166.5,50.5 165.5,50.5 164.5,50.5C 164.5,52.5 164.5,54.5 164.5,56.5C 163.5,56.5 162.5,56.5 161.5,56.5C 160.971,54.2156 159.971,52.2156 158.5,50.5C 157.833,50.5 157.167,50.5 156.5,50.5C 155.5,50.5 154.5,50.5 153.5,50.5C 153.5,49.8333 153.5,49.1667 153.5,48.5C 154.5,48.5 155.5,48.5 156.5,48.5C 157.5,48.5 158.5,48.5 159.5,48.5C 159.5,47.5 159.5,46.5 159.5,45.5 Z"/></g>
<g><path style="opacity:1" fill="#c73114" d="M 114.5,50.5 C 112.857,50.5198 111.524,49.8532 110.5,48.5C 109.476,49.8532 108.143,50.5198 106.5,50.5C 106.5,48.8333 106.5,47.1667 106.5,45.5C 109.308,45.6933 111.975,46.36 114.5,47.5C 114.5,48.5 114.5,49.5 114.5,50.5 Z"/></g>
<g><path style="opacity:1" fill="#821803" d="M 159.5,45.5 C 159.5,46.5 159.5,47.5 159.5,48.5C 158.5,48.5 157.5,48.5 156.5,48.5C 156.5,47.5 156.5,46.5 156.5,45.5C 157.5,45.5 158.5,45.5 159.5,45.5 Z"/></g>
<g><path style="opacity:1" fill="#180d0c" d="M 114.5,50.5 C 114.5,51.5 114.5,52.5 114.5,53.5C 112.833,53.5 111.167,53.5 109.5,53.5C 108.5,53.5 107.5,53.5 106.5,53.5C 106.5,52.5 106.5,51.5 106.5,50.5C 108.143,50.5198 109.476,49.8532 110.5,48.5C 111.524,49.8532 112.857,50.5198 114.5,50.5 Z"/></g>
<g><path style="opacity:1" fill="#cd3618" d="M 153.5,48.5 C 153.5,49.1667 153.5,49.8333 153.5,50.5C 153.5,51.5 153.5,52.5 153.5,53.5C 152.5,53.5 151.5,53.5 150.5,53.5C 150.5,52.8333 150.5,52.1667 150.5,51.5C 150.5,50.5 150.5,49.5 150.5,48.5C 151.5,48.5 152.5,48.5 153.5,48.5 Z"/></g>
<g><path style="opacity:1" fill="#050100" d="M 150.5,51.5 C 150.5,52.1667 150.5,52.8333 150.5,53.5C 147.833,52.8333 147.833,52.1667 150.5,51.5 Z"/></g>
<g><path style="opacity:1" fill="#f6f3e4" d="M 153.5,50.5 C 154.5,50.5 155.5,50.5 156.5,50.5C 156.5,51.5 156.5,52.5 156.5,53.5C 155.5,53.5 154.5,53.5 153.5,53.5C 153.5,52.5 153.5,51.5 153.5,50.5 Z"/></g>
<g><path style="opacity:1" fill="#181405" d="M 114.5,53.5 C 116.048,53.8212 116.715,54.8212 116.5,56.5C 114.952,56.1788 114.285,55.1788 114.5,53.5 Z"/></g>
<g><path style="opacity:1" fill="#e4cc27" d="M 156.5,50.5 C 157.167,50.5 157.833,50.5 158.5,50.5C 158.5,54.1667 158.5,57.8333 158.5,61.5C 156.952,61.8212 156.285,62.8212 156.5,64.5C 156.5,65.5 156.5,66.5 156.5,67.5C 156.167,67.5 155.833,67.5 155.5,67.5C 154.167,67.5 153.5,68.1667 153.5,69.5C 153.5,69.8333 153.5,70.1667 153.5,70.5C 152.5,70.5 151.5,70.5 150.5,70.5C 150.5,72.1667 150.5,73.8333 150.5,75.5C 151.5,75.5 152.5,75.5 153.5,75.5C 153.5,77.5 153.5,79.5 153.5,81.5C 151.821,81.2852 150.821,81.9519 150.5,83.5C 150.5,83.8333 150.5,84.1667 150.5,84.5C 149.167,84.5 148.5,85.1667 148.5,86.5C 148.167,86.5 147.833,86.5 147.5,86.5C 144.833,87.5 144.833,88.5 147.5,89.5C 148.5,89.5 149.5,89.5 150.5,89.5C 150.5,88.5 150.5,87.5 150.5,86.5C 152.5,86.5 154.5,86.5 156.5,86.5C 157.167,86.5 157.833,86.5 158.5,86.5C 158.5,87.5 158.5,88.5 158.5,89.5C 157.351,89.7911 156.684,90.6244 156.5,92C 156.684,93.3756 157.351,94.2089 158.5,94.5C 158.5,95.5 158.5,96.5 158.5,97.5C 157.5,97.5 156.5,97.5 155.5,97.5C 154.706,94.8481 154.04,95.0148 153.5,98C 153.684,99.3756 154.351,100.209 155.5,100.5C 157.5,100.5 159.5,100.5 161.5,100.5C 161.5,101.5 161.5,102.5 161.5,103.5C 162.5,103.5 163.5,103.5 164.5,103.5C 164.5,105.167 164.5,106.833 164.5,108.5C 162.5,108.5 160.5,108.5 158.5,108.5C 158.5,109.5 158.5,110.5 158.5,111.5C 157.5,111.5 156.5,111.5 155.5,111.5C 155.5,112.5 155.5,113.5 155.5,114.5C 156.5,114.5 157.5,114.5 158.5,114.5C 158.5,115.5 158.5,116.5 158.5,117.5C 160.5,117.5 162.5,117.5 164.5,117.5C 164.5,118.167 164.5,118.833 164.5,119.5C 164.5,119.833 164.5,120.167 164.5,120.5C 163.5,120.5 162.5,120.5 161.5,120.5C 161.5,123.833 161.5,127.167 161.5,130.5C 161.5,130.833 161.5,131.167 161.5,131.5C 160.833,131.5 160.167,131.5 159.5,131.5C 158.533,132.806 157.199,133.473 155.5,133.5C 155.5,134.5 155.5,135.5 155.5,136.5C 154.833,136.5 154.167,136.5 153.5,136.5C 152.5,136.5 151.5,136.5 150.5,136.5C 149.5,136.5 148.5,136.5 147.5,136.5C 146.833,134.5 146.167,132.5 145.5,130.5C 142.336,130.442 139.336,129.776 136.5,128.5C 136.5,129.5 136.5,130.5 136.5,131.5C 138.179,131.285 139.179,131.952 139.5,133.5C 136.5,133.5 133.5,133.5 130.5,133.5C 130.5,134.5 130.5,135.5 130.5,136.5C 129.167,136.5 128.5,137.167 128.5,138.5C 128.5,138.833 128.5,139.167 128.5,139.5C 126.821,139.285 125.821,139.952 125.5,141.5C 125.5,141.833 125.5,142.167 125.5,142.5C 121.833,142.5 118.167,142.5 114.5,142.5C 114.5,142.167 114.5,141.833 114.5,141.5C 114.5,140.833 114.5,140.167 114.5,139.5C 117.167,139.5 119.833,139.5 122.5,139.5C 122.5,138.5 122.5,137.5 122.5,136.5C 121.5,136.5 120.5,136.5 119.5,136.5C 118.833,134.5 118.167,132.5 117.5,130.5C 115.5,129.833 113.5,129.167 111.5,128.5C 111.5,127.5 111.5,126.5 111.5,125.5C 111.5,124.5 111.5,123.5 111.5,122.5C 110.5,122.5 109.5,122.5 108.5,122.5C 108.5,119.833 108.5,117.167 108.5,114.5C 107.833,110.5 107.167,110.5 106.5,114.5C 106.5,118.167 106.5,121.833 106.5,125.5C 104.5,125.5 102.5,125.5 100.5,125.5C 100.5,124.5 100.5,123.5 100.5,122.5C 100.5,120.833 100.5,119.167 100.5,117.5C 100.5,117.167 100.5,116.833 100.5,116.5C 101.5,116.5 102.5,116.5 103.5,116.5C 103.5,114.833 103.5,113.167 103.5,111.5C 105.256,110.448 105.923,108.781 105.5,106.5C 106.167,106.5 106.5,106.167 106.5,105.5C 107.833,105.5 108.5,104.833 108.5,103.5C 109.5,103.5 110.5,103.5 111.5,103.5C 111.5,102.5 111.5,101.5 111.5,100.5C 109.833,100.5 108.167,100.5 106.5,100.5C 106.167,100.5 105.833,100.5 105.5,100.5C 105.5,99.1667 104.833,98.5 103.5,98.5C 103.5,98.1667 103.5,97.8333 103.5,97.5C 103.5,95.8333 103.5,94.1667 103.5,92.5C 103.5,90.5 103.5,88.5 103.5,86.5C 102.5,86.5 101.5,86.5 100.5,86.5C 100.5,85.8333 100.5,85.1667 100.5,84.5C 100.5,83.5 100.5,82.5 100.5,81.5C 100.5,81.1667 100.5,80.8333 100.5,80.5C 101.5,80.5 102.5,80.5 103.5,80.5C 103.285,82.1788 103.952,83.1788 105.5,83.5C 106.467,82.1938 107.801,81.5271 109.5,81.5C 109.5,78.5 109.5,75.5 109.5,72.5C 115.133,71.3218 120.466,69.6551 125.5,67.5C 125.5,66.5 125.5,65.5 125.5,64.5C 128.5,64.5 131.5,64.5 134.5,64.5C 136.167,64.5 137.833,64.5 139.5,64.5C 141.5,64.5 143.5,64.5 145.5,64.5C 145.5,63.5 145.5,62.5 145.5,61.5C 148.5,61.1667 150.167,59.5 150.5,56.5C 151.5,56.5 152.5,56.5 153.5,56.5C 153.5,55.5 153.5,54.5 153.5,53.5C 154.5,53.5 155.5,53.5 156.5,53.5C 156.5,52.5 156.5,51.5 156.5,50.5 Z"/></g>
<g><path style="opacity:1" fill="#e1c927" d="M 109.5,53.5 C 111.167,53.5 112.833,53.5 114.5,53.5C 114.285,55.1788 114.952,56.1788 116.5,56.5C 116.833,56.5 117.167,56.5 117.5,56.5C 117.5,57.8333 118.167,58.5 119.5,58.5C 119.5,59.1667 119.833,59.5 120.5,59.5C 120.5,60.1667 120.5,60.8333 120.5,61.5C 120.167,61.5 119.833,61.5 119.5,61.5C 117.833,61.5 116.167,61.5 114.5,61.5C 114.5,62.5 114.5,63.5 114.5,64.5C 113.5,64.5 112.5,64.5 111.5,64.5C 110.833,64.5 110.167,64.5 109.5,64.5C 109.5,62.5 109.5,60.5 109.5,58.5C 107.821,58.7148 106.821,58.0481 106.5,56.5C 107.5,56.5 108.5,56.5 109.5,56.5C 109.5,55.5 109.5,54.5 109.5,53.5 Z"/></g>
<g><path style="opacity:1" fill="#bd3f03" d="M 158.5,50.5 C 159.971,52.2156 160.971,54.2156 161.5,56.5C 161.5,57.5 161.5,58.5 161.5,59.5C 160.167,59.5 159.5,60.1667 159.5,61.5C 159.167,61.5 158.833,61.5 158.5,61.5C 158.5,57.8333 158.5,54.1667 158.5,50.5 Z"/></g>
<g><path style="opacity:1" fill="#d55608" d="M 106.5,53.5 C 107.5,53.5 108.5,53.5 109.5,53.5C 109.5,54.5 109.5,55.5 109.5,56.5C 108.5,56.5 107.5,56.5 106.5,56.5C 106.5,55.5 106.5,54.5 106.5,53.5 Z"/></g>
<g><path style="opacity:1" fill="#000000" d="M 117.5,56.5 C 118.833,56.5 119.5,57.1667 119.5,58.5C 119.5,57.1667 118.833,56.5 117.5,56.5 Z"/></g>
<g><path style="opacity:1" fill="#4e4e4e" d="M 139.5,61.5 C 139.5,60.5 139.5,59.5 139.5,58.5C 142.5,58.1667 144.167,56.5 144.5,53.5C 145.5,53.5 146.5,53.5 147.5,53.5C 146.5,57.8333 143.833,60.5 139.5,61.5 Z"/></g>
<g><path style="opacity:1" fill="#000000" d="M 120.5,59.5 C 137.833,60.1667 137.833,60.8333 120.5,61.5C 120.5,60.8333 120.5,60.1667 120.5,59.5 Z"/></g>
<g><path style="opacity:1" fill="#000000" d="M 161.5,59.5 C 161.5,60.8333 160.833,61.5 159.5,61.5C 159.5,60.1667 160.167,59.5 161.5,59.5 Z"/></g>
<g><path style="opacity:1" fill="#cc1e00" d="M 105.5,59.5 C 105.5,61.1667 105.5,62.8333 105.5,64.5C 104.833,64.5 104.167,64.5 103.5,64.5C 103.077,62.2188 103.744,60.5521 105.5,59.5 Z"/></g>
<g><path style="opacity:1" fill="#0f0c01" d="M 139.5,61.5 C 139.5,62.5 139.5,63.5 139.5,64.5C 137.833,64.5 136.167,64.5 134.5,64.5C 134.5,63.5 134.5,62.5 134.5,61.5C 136.167,61.5 137.833,61.5 139.5,61.5 Z"/></g>
<g><path style="opacity:1" fill="#cb1c00" d="M 158.5,61.5 C 158.5,62.5 158.5,63.5 158.5,64.5C 157.833,64.5 157.167,64.5 156.5,64.5C 156.285,62.8212 156.952,61.8212 158.5,61.5 Z"/></g>
<g><path style="opacity:1" fill="#d03110" d="M 119.5,61.5 C 119.5,62.5 119.5,63.5 119.5,64.5C 117.833,64.5 116.167,64.5 114.5,64.5C 114.5,63.5 114.5,62.5 114.5,61.5C 116.167,61.5 117.833,61.5 119.5,61.5 Z"/></g>
<g><path style="opacity:1" fill="#000000" d="M 103.5,64.5 C 104.167,64.5 104.833,64.5 105.5,64.5C 105.923,66.7812 105.256,68.4479 103.5,69.5C 103.5,67.8333 103.5,66.1667 103.5,64.5 Z"/></g>
<g><path style="opacity:1" fill="#1e1e1e" d="M 156.5,64.5 C 157.167,64.5 157.833,64.5 158.5,64.5C 158.715,66.1788 158.048,67.1788 156.5,67.5C 156.5,66.5 156.5,65.5 156.5,64.5 Z"/></g>
<g><path style="opacity:1" fill="#0e0d09" d="M 128.5,70.5 C 128.821,72.0481 129.821,72.7148 131.5,72.5C 131.5,71.5 131.5,70.5 131.5,69.5C 130.5,69.5 129.5,69.5 128.5,69.5C 129.552,67.744 131.219,67.0773 133.5,67.5C 133.5,68.5 133.5,69.5 133.5,70.5C 134.5,70.5 135.5,70.5 136.5,70.5C 136.5,72.1667 136.5,73.8333 136.5,75.5C 135.5,75.5 134.5,75.5 133.5,75.5C 133.5,76.5 133.5,77.5 133.5,78.5C 131.833,78.5 130.167,78.5 128.5,78.5C 128.5,77.5 128.5,76.5 128.5,75.5C 127.5,75.5 126.5,75.5 125.5,75.5C 125.5,73.8333 125.5,72.1667 125.5,70.5C 126.5,70.5 127.5,70.5 128.5,70.5 Z"/></g>
<g><path style="opacity:1" fill="#060500" d="M 148.5,67.5 C 150.337,67.6395 150.67,68.3061 149.5,69.5C 148.702,69.0431 148.369,68.3764 148.5,67.5 Z"/></g>
<g><path style="opacity:1" fill="#000000" d="M 155.5,67.5 C 155.5,68.8333 154.833,69.5 153.5,69.5C 153.5,68.1667 154.167,67.5 155.5,67.5 Z"/></g>
<g><path style="opacity:1" fill="#bf6a21" d="M 105.5,59.5 C 106.451,60.9187 106.784,62.5853 106.5,64.5C 107.5,64.5 108.5,64.5 109.5,64.5C 110.167,64.5 110.833,64.5 111.5,64.5C 110.36,67.0248 109.693,69.6915 109.5,72.5C 109.5,75.5 109.5,78.5 109.5,81.5C 107.801,81.5271 106.467,82.1938 105.5,83.5C 105.5,82.5 105.5,81.5 105.5,80.5C 106.5,80.5 107.5,80.5 108.5,80.5C 108.923,78.2188 108.256,76.5521 106.5,75.5C 106.5,74.5 106.5,73.5 106.5,72.5C 105.5,72.5 104.5,72.5 103.5,72.5C 103.5,71.5 103.5,70.5 103.5,69.5C 105.256,68.4479 105.923,66.7812 105.5,64.5C 105.5,62.8333 105.5,61.1667 105.5,59.5 Z"/></g>
<g><path style="opacity:1" fill="#cecece" d="M 128.5,69.5 C 129.5,69.5 130.5,69.5 131.5,69.5C 131.5,70.5 131.5,71.5 131.5,72.5C 129.821,72.7148 128.821,72.0481 128.5,70.5C 128.5,70.1667 128.5,69.8333 128.5,69.5 Z"/></g>
<g><path style="opacity:1" fill="#1e1e1e" d="M 153.5,70.5 C 153.5,72.1667 153.5,73.8333 153.5,75.5C 152.5,75.5 151.5,75.5 150.5,75.5C 150.5,73.8333 150.5,72.1667 150.5,70.5C 151.5,70.5 152.5,70.5 153.5,70.5 Z"/></g>
<g><path style="opacity:1" fill="#000000" d="M 175.5,70.5 C 177.288,70.2148 178.955,70.5481 180.5,71.5C 179.667,71.8333 178.833,72.1667 178,72.5C 176.624,72.3158 175.791,71.6491 175.5,70.5 Z"/></g>
<g><path style="opacity:1" fill="#3d1102" d="M 103.5,72.5 C 104.5,72.5 105.5,72.5 106.5,72.5C 106.5,73.5 106.5,74.5 106.5,75.5C 105.5,75.5 104.5,75.5 103.5,75.5C 103.5,74.5 103.5,73.5 103.5,72.5 Z"/></g>
<g><path style="opacity:1" fill="#000000" d="M 175.5,78.5 C 175.5,79.1667 175.5,79.8333 175.5,80.5C 174.833,80.5 174.167,80.5 173.5,80.5C 173.192,78.076 173.526,75.7427 174.5,73.5C 175.452,75.0453 175.785,76.712 175.5,78.5 Z"/></g>
<g><path style="opacity:1" fill="#1e1d1a" d="M 189.5,78.5 C 188.5,78.5 187.5,78.5 186.5,78.5C 185.833,78.5 185.167,78.5 184.5,78.5C 184.5,77.5 184.5,76.5 184.5,75.5C 183.5,75.5 182.5,75.5 181.5,75.5C 181.5,74.5 181.5,73.5 181.5,72.5C 183.167,72.5 184.833,72.5 186.5,72.5C 186.5,73.5 186.5,74.5 186.5,75.5C 187.5,75.5 188.5,75.5 189.5,75.5C 189.5,76.5 189.5,77.5 189.5,78.5 Z"/></g>
<g><path style="opacity:1" fill="#080808" d="M 103.5,75.5 C 103.5,76.5 103.5,77.5 103.5,78.5C 104.5,78.5 105.5,78.5 106.5,78.5C 106.5,77.5 106.5,76.5 106.5,75.5C 108.256,76.5521 108.923,78.2188 108.5,80.5C 107.5,80.5 106.5,80.5 105.5,80.5C 105.5,81.5 105.5,82.5 105.5,83.5C 103.952,83.1788 103.285,82.1788 103.5,80.5C 102.5,80.5 101.5,80.5 100.5,80.5C 100.5,78.8333 100.5,77.1667 100.5,75.5C 101.5,75.5 102.5,75.5 103.5,75.5 Z"/></g>
<g><path style="opacity:1" fill="#000000" d="M 153.5,75.5 C 155.369,77.6353 156.036,80.3019 155.5,83.5C 153.833,83.5 152.167,83.5 150.5,83.5C 150.821,81.9519 151.821,81.2852 153.5,81.5C 153.5,79.5 153.5,77.5 153.5,75.5 Z"/></g>
<g><path style="opacity:1" fill="#ececec" d="M 103.5,75.5 C 104.5,75.5 105.5,75.5 106.5,75.5C 106.5,76.5 106.5,77.5 106.5,78.5C 105.5,78.5 104.5,78.5 103.5,78.5C 103.5,77.5 103.5,76.5 103.5,75.5 Z"/></g>
<g><path style="opacity:1" fill="#000000" d="M 189.5,78.5 C 190.833,78.5 191.5,79.1667 191.5,80.5C 191.5,79.1667 190.833,78.5 189.5,78.5 Z"/></g>
<g><path style="opacity:1" fill="#d03401" d="M 142.5,89.5 C 140.5,89.5 138.5,89.5 136.5,89.5C 136.5,88.5 136.5,87.5 136.5,86.5C 135.5,86.5 134.5,86.5 133.5,86.5C 133.5,84.8333 133.5,83.1667 133.5,81.5C 134.5,81.5 135.5,81.5 136.5,81.5C 136.5,80.5 136.5,79.5 136.5,78.5C 138.5,78.5 140.5,78.5 142.5,78.5C 142.955,80.3666 143.622,82.1999 144.5,84C 143.622,85.8001 142.955,87.6334 142.5,89.5 Z"/></g>
<g><path style="opacity:1" fill="#473f11" d="M 111.5,78.5 C 112.5,78.5 113.5,78.5 114.5,78.5C 114.5,79.5 114.5,80.5 114.5,81.5C 113.5,81.5 112.5,81.5 111.5,81.5C 111.5,80.5 111.5,79.5 111.5,78.5 Z"/></g>
<g><path style="opacity:1" fill="#f7e8a6" d="M 175.5,78.5 C 177.143,78.4802 178.476,79.1468 179.5,80.5C 180.842,78.9951 182.508,78.3285 184.5,78.5C 185.167,78.5 185.833,78.5 186.5,78.5C 185.833,80.5 185.167,82.5 184.5,84.5C 183.167,84.5 181.833,84.5 180.5,84.5C 180.719,83.325 180.386,82.325 179.5,81.5C 178.476,82.8532 177.143,83.5198 175.5,83.5C 175.5,82.5 175.5,81.5 175.5,80.5C 175.5,79.8333 175.5,79.1667 175.5,78.5 Z"/></g>
<g><path style="opacity:1" fill="#dfc727" d="M 186.5,78.5 C 187.5,78.5 188.5,78.5 189.5,78.5C 189.5,79.8333 190.167,80.5 191.5,80.5C 191.5,81.1667 191.833,81.5 192.5,81.5C 192.5,83.1667 192.5,84.8333 192.5,86.5C 192.167,86.5 191.833,86.5 191.5,86.5C 189.952,86.8212 189.285,87.8212 189.5,89.5C 188.5,89.5 187.5,89.5 186.5,89.5C 186.5,91.1667 186.5,92.8333 186.5,94.5C 186.5,94.8333 186.5,95.1667 186.5,95.5C 184.744,96.5521 184.077,98.2188 184.5,100.5C 186.167,100.5 187.833,100.5 189.5,100.5C 189.715,102.179 189.048,103.179 187.5,103.5C 186.596,104.209 186.263,105.209 186.5,106.5C 185.167,106.5 184.5,107.167 184.5,108.5C 184.167,108.5 183.833,108.5 183.5,108.5C 181.833,108.5 180.167,108.5 178.5,108.5C 178.5,110.5 178.5,112.5 178.5,114.5C 179.5,114.5 180.5,114.5 181.5,114.5C 181.5,115.5 181.5,116.5 181.5,117.5C 181.167,117.5 180.833,117.5 180.5,117.5C 178.833,117.5 177.167,117.5 175.5,117.5C 175.5,116.5 175.5,115.5 175.5,114.5C 174.5,114.5 173.5,114.5 172.5,114.5C 172.715,112.821 172.048,111.821 170.5,111.5C 170.167,111.5 169.833,111.5 169.5,111.5C 169.5,110.5 169.5,109.5 169.5,108.5C 169.833,108.5 170.167,108.5 170.5,108.5C 171.833,108.5 172.5,107.833 172.5,106.5C 172.5,106.167 172.5,105.833 172.5,105.5C 173.5,105.5 174.5,105.5 175.5,105.5C 179.5,104.833 179.5,104.167 175.5,103.5C 174.5,103.5 173.5,103.5 172.5,103.5C 172.5,102.5 172.5,101.5 172.5,100.5C 171.5,100.5 170.5,100.5 169.5,100.5C 169.5,97.8333 169.5,95.1667 169.5,92.5C 169.833,92.5 170.167,92.5 170.5,92.5C 172.414,89.3157 173.08,85.649 172.5,81.5C 172.5,80.8333 172.833,80.5 173.5,80.5C 174.167,80.5 174.833,80.5 175.5,80.5C 175.5,81.5 175.5,82.5 175.5,83.5C 177.143,83.5198 178.476,82.8532 179.5,81.5C 180.386,82.325 180.719,83.325 180.5,84.5C 181.833,84.5 183.167,84.5 184.5,84.5C 185.167,82.5 185.833,80.5 186.5,78.5 Z"/></g>
<g><path style="opacity:1" fill="#090701" d="M 172.5,81.5 C 173.08,85.649 172.414,89.3157 170.5,92.5C 169.92,88.351 170.586,84.6843 172.5,81.5 Z"/></g>
<g><path style="opacity:1" fill="#000000" d="M 192.5,81.5 C 193.649,81.7911 194.316,82.6244 194.5,84C 194.316,85.3756 193.649,86.2089 192.5,86.5C 192.5,84.8333 192.5,83.1667 192.5,81.5 Z"/></g>
<g><path style="opacity:1" fill="#b41002" d="M 98.5,81.5 C 99.1667,81.5 99.8333,81.5 100.5,81.5C 100.5,82.5 100.5,83.5 100.5,84.5C 99.8333,84.5 99.1667,84.5 98.5,84.5C 98.5,83.5 98.5,82.5 98.5,81.5 Z"/></g>
<g><path style="opacity:1" fill="#796c15" d="M 111.5,84.5 C 114.287,83.5233 117.287,83.19 120.5,83.5C 120.5,84.5 120.5,85.5 120.5,86.5C 122.167,86.5 123.833,86.5 125.5,86.5C 125.5,86.8333 125.5,87.1667 125.5,87.5C 123.5,87.5 121.5,87.5 119.5,87.5C 119.5,86.5 119.5,85.5 119.5,84.5C 116.833,84.5 114.167,84.5 111.5,84.5 Z"/></g>
<g><path style="opacity:1" fill="#7e6d6b" d="M 98.5,81.5 C 98.5,82.5 98.5,83.5 98.5,84.5C 97.9898,87.3878 98.6565,89.7211 100.5,91.5C 100.5,91.8333 100.5,92.1667 100.5,92.5C 99.5,92.5 98.5,92.5 97.5,92.5C 97.185,88.6286 97.5184,84.9619 98.5,81.5 Z"/></g>
<g><path style="opacity:1" fill="#000000" d="M 98.5,84.5 C 99.1667,84.5 99.8333,84.5 100.5,84.5C 100.5,85.1667 100.5,85.8333 100.5,86.5C 100.5,88.1667 100.5,89.8333 100.5,91.5C 98.6565,89.7211 97.9898,87.3878 98.5,84.5 Z"/></g>
<g><path style="opacity:1" fill="#0d0400" d="M 111.5,84.5 C 114.167,84.5 116.833,84.5 119.5,84.5C 119.5,85.5 119.5,86.5 119.5,87.5C 121.5,87.5 123.5,87.5 125.5,87.5C 125.179,89.0481 124.179,89.7148 122.5,89.5C 122.923,91.7812 122.256,93.4479 120.5,94.5C 120.5,92.8333 120.5,91.1667 120.5,89.5C 119.5,89.5 118.5,89.5 117.5,89.5C 117.5,90.5 117.5,91.5 117.5,92.5C 116.5,92.5 115.5,92.5 114.5,92.5C 113.5,92.5 112.5,92.5 111.5,92.5C 111.52,90.857 110.853,89.5237 109.5,88.5C 110.853,87.4763 111.52,86.143 111.5,84.5 Z"/></g>
<g><path style="opacity:1" fill="#3e370f" d="M 125.5,86.5 C 125.5,85.5 125.5,84.5 125.5,83.5C 126.5,83.5 127.5,83.5 128.5,83.5C 128.5,84.5 128.5,85.5 128.5,86.5C 127.5,86.5 126.5,86.5 125.5,86.5 Z"/></g>
<g><path style="opacity:1" fill="#08080c" d="M 150.5,84.5 C 150.5,85.1667 150.5,85.8333 150.5,86.5C 149.833,86.5 149.167,86.5 148.5,86.5C 148.5,85.1667 149.167,84.5 150.5,84.5 Z"/></g>
<g><path style="opacity:1" fill="#000000" d="M 158.5,86.5 C 157.833,86.5 157.167,86.5 156.5,86.5C 157.167,83.8333 157.833,83.8333 158.5,86.5 Z"/></g>
<g><path style="opacity:1" fill="#cc3100" d="M 100.5,86.5 C 101.5,86.5 102.5,86.5 103.5,86.5C 103.5,88.5 103.5,90.5 103.5,92.5C 102.5,92.5 101.5,92.5 100.5,92.5C 100.5,92.1667 100.5,91.8333 100.5,91.5C 100.5,89.8333 100.5,88.1667 100.5,86.5 Z"/></g>
<g><path style="opacity:1" fill="#161204" d="M 147.5,86.5 C 147.5,87.5 147.5,88.5 147.5,89.5C 144.833,88.5 144.833,87.5 147.5,86.5 Z"/></g>
<g><path style="opacity:1" fill="#e7e7e6" d="M 147.5,86.5 C 147.833,86.5 148.167,86.5 148.5,86.5C 149.167,86.5 149.833,86.5 150.5,86.5C 150.5,87.5 150.5,88.5 150.5,89.5C 149.5,89.5 148.5,89.5 147.5,89.5C 147.5,88.5 147.5,87.5 147.5,86.5 Z"/></g>
<g><path style="opacity:1" fill="#282418" d="M 158.5,86.5 C 159.5,86.5 160.5,86.5 161.5,86.5C 161.5,87.5 161.5,88.5 161.5,89.5C 160.5,89.5 159.5,89.5 158.5,89.5C 158.5,88.5 158.5,87.5 158.5,86.5 Z"/></g>
<g><path style="opacity:1" fill="#181405" d="M 191.5,86.5 C 191.715,88.1788 191.048,89.1788 189.5,89.5C 189.285,87.8212 189.952,86.8212 191.5,86.5 Z"/></g>
<g><path style="opacity:1" fill="#be2f01" d="M 120.5,94.5 C 119.833,94.5 119.5,94.8333 119.5,95.5C 118.833,95.5 118.167,95.5 117.5,95.5C 116.5,95.5 115.5,95.5 114.5,95.5C 114.5,94.5 114.5,93.5 114.5,92.5C 115.5,92.5 116.5,92.5 117.5,92.5C 117.5,91.5 117.5,90.5 117.5,89.5C 118.5,89.5 119.5,89.5 120.5,89.5C 120.5,91.1667 120.5,92.8333 120.5,94.5 Z"/></g>
<g><path style="opacity:1" fill="#161204" d="M 142.5,89.5 C 144.465,89.9483 144.798,90.9483 143.5,92.5C 142.614,91.675 142.281,90.675 142.5,89.5 Z"/></g>
<g><path style="opacity:1" fill="#000000" d="M 158.5,89.5 C 158.5,90.5 158.5,91.5 158.5,92.5C 159.5,92.5 160.5,92.5 161.5,92.5C 161.5,93.1667 161.5,93.8333 161.5,94.5C 160.5,94.5 159.5,94.5 158.5,94.5C 157.351,94.2089 156.684,93.3756 156.5,92C 156.684,90.6244 157.351,89.7911 158.5,89.5 Z"/></g>
<g><path style="opacity:1" fill="#c42300" d="M 158.5,89.5 C 159.5,89.5 160.5,89.5 161.5,89.5C 161.5,90.5 161.5,91.5 161.5,92.5C 160.5,92.5 159.5,92.5 158.5,92.5C 158.5,91.5 158.5,90.5 158.5,89.5 Z"/></g>
<g><path style="opacity:1" fill="#403c2f" d="M 189.5,89.5 C 189.5,91.1667 189.5,92.8333 189.5,94.5C 188.5,94.5 187.5,94.5 186.5,94.5C 186.5,92.8333 186.5,91.1667 186.5,89.5C 187.5,89.5 188.5,89.5 189.5,89.5 Z"/></g>
<g><path style="opacity:1" fill="#11100d" d="M 100.5,92.5 C 101.5,92.5 102.5,92.5 103.5,92.5C 103.5,94.1667 103.5,95.8333 103.5,97.5C 102.5,97.5 101.5,97.5 100.5,97.5C 100.5,95.8333 100.5,94.1667 100.5,92.5 Z"/></g>
<g><path style="opacity:1" fill="#040406" d="M 169.5,92.5 C 169.5,95.1667 169.5,97.8333 169.5,100.5C 168.252,99.6661 167.585,98.3328 167.5,96.5C 167.585,94.6672 168.252,93.3339 169.5,92.5 Z"/></g>
<g><path style="opacity:1" fill="#000000" d="M 117.5,95.5 C 118.167,95.5 118.833,95.5 119.5,95.5C 118.833,98.1667 118.167,98.1667 117.5,95.5 Z"/></g>
<g><path style="opacity:1" fill="#0a0801" d="M 155.5,97.5 C 155.5,98.5 155.5,99.5 155.5,100.5C 154.351,100.209 153.684,99.3756 153.5,98C 154.04,95.0148 154.706,94.8481 155.5,97.5 Z"/></g>
<g><path style="opacity:1" fill="#22201a" d="M 186.5,95.5 C 186.821,97.0481 187.821,97.7148 189.5,97.5C 189.5,98.5 189.5,99.5 189.5,100.5C 187.833,100.5 186.167,100.5 184.5,100.5C 184.077,98.2188 184.744,96.5521 186.5,95.5 Z"/></g>
<g><path style="opacity:1" fill="#27241b" d="M 161.5,95.5 C 162.5,95.5 163.5,95.5 164.5,95.5C 164.5,98.1667 164.5,100.833 164.5,103.5C 163.5,103.5 162.5,103.5 161.5,103.5C 161.5,102.5 161.5,101.5 161.5,100.5C 161.5,98.8333 161.5,97.1667 161.5,95.5 Z"/></g>
<g><path style="opacity:1" fill="#c83d04" d="M 158.5,94.5 C 159.5,94.5 160.5,94.5 161.5,94.5C 161.5,94.8333 161.5,95.1667 161.5,95.5C 161.5,97.1667 161.5,98.8333 161.5,100.5C 159.5,100.5 157.5,100.5 155.5,100.5C 155.5,99.5 155.5,98.5 155.5,97.5C 156.5,97.5 157.5,97.5 158.5,97.5C 158.5,96.5 158.5,95.5 158.5,94.5 Z"/></g>
<g><path style="opacity:1" fill="#141414" d="M 103.5,98.5 C 104.833,98.5 105.5,99.1667 105.5,100.5C 104.167,100.5 103.5,99.8333 103.5,98.5 Z"/></g>
<g><path style="opacity:1" fill="#c92f01" d="M 106.5,100.5 C 108.167,100.5 109.833,100.5 111.5,100.5C 111.5,101.5 111.5,102.5 111.5,103.5C 110.5,103.5 109.5,103.5 108.5,103.5C 107.833,103.5 107.167,103.5 106.5,103.5C 106.5,102.5 106.5,101.5 106.5,100.5 Z"/></g>
<g><path style="opacity:1" fill="#000000" d="M 189.5,100.5 C 191.256,101.552 191.923,103.219 191.5,105.5C 189.517,105.843 188.183,105.176 187.5,103.5C 189.048,103.179 189.715,102.179 189.5,100.5 Z"/></g>
<g><path style="opacity:1" fill="#585858" d="M 169.5,100.5 C 170.5,100.5 171.5,100.5 172.5,100.5C 172.5,101.5 172.5,102.5 172.5,103.5C 171.5,103.5 170.5,103.5 169.5,103.5C 169.5,102.5 169.5,101.5 169.5,100.5 Z"/></g>
<g><path style="opacity:1" fill="#000000" d="M 106.5,103.5 C 107.167,103.5 107.833,103.5 108.5,103.5C 108.5,104.833 107.833,105.5 106.5,105.5C 106.5,104.833 106.5,104.167 106.5,103.5 Z"/></g>
<g><path style="opacity:1" fill="#101010" d="M 164.5,103.5 C 165.5,103.5 166.5,103.5 167.5,103.5C 167.077,105.781 167.744,107.448 169.5,108.5C 169.5,109.5 169.5,110.5 169.5,111.5C 168.5,111.5 167.5,111.5 166.5,111.5C 166.5,112.5 166.5,113.5 166.5,114.5C 167.833,114.5 169.167,114.5 170.5,114.5C 170.5,113.5 170.5,112.5 170.5,111.5C 172.048,111.821 172.715,112.821 172.5,114.5C 171.082,116.308 169.082,116.975 166.5,116.5C 166.715,118.179 166.048,119.179 164.5,119.5C 164.5,118.833 164.5,118.167 164.5,117.5C 164.5,114.5 164.5,111.5 164.5,108.5C 164.5,106.833 164.5,105.167 164.5,103.5 Z"/></g>
<g><path style="opacity:1" fill="#1d1d1d" d="M 172.5,103.5 C 173.5,103.5 174.5,103.5 175.5,103.5C 175.5,104.167 175.5,104.833 175.5,105.5C 174.5,105.5 173.5,105.5 172.5,105.5C 172.5,104.833 172.5,104.167 172.5,103.5 Z"/></g>
<g><path style="opacity:1" fill="#ce2200" d="M 175.5,103.5 C 179.5,104.167 179.5,104.833 175.5,105.5C 175.5,104.833 175.5,104.167 175.5,103.5 Z"/></g>
<g><path style="opacity:1" fill="#000000" d="M 105.5,106.5 C 105.923,108.781 105.256,110.448 103.5,111.5C 103.077,109.219 103.744,107.552 105.5,106.5 Z"/></g>
<g><path style="opacity:1" fill="#000000" d="M 172.5,106.5 C 172.5,107.833 171.833,108.5 170.5,108.5C 170.5,107.167 171.167,106.5 172.5,106.5 Z"/></g>
<g><path style="opacity:1" fill="#000000" d="M 186.5,106.5 C 186.5,107.833 185.833,108.5 184.5,108.5C 184.5,107.167 185.167,106.5 186.5,106.5 Z"/></g>
<g><path style="opacity:1" fill="#201d10" d="M 183.5,108.5 C 182.833,110.5 182.167,112.5 181.5,114.5C 180.5,114.5 179.5,114.5 178.5,114.5C 178.5,112.5 178.5,110.5 178.5,108.5C 180.167,108.5 181.833,108.5 183.5,108.5 Z"/></g>
<g><path style="opacity:1" fill="#d14403" d="M 164.5,108.5 C 164.5,111.5 164.5,114.5 164.5,117.5C 162.5,117.5 160.5,117.5 158.5,117.5C 158.5,116.5 158.5,115.5 158.5,114.5C 157.5,114.5 156.5,114.5 155.5,114.5C 155.5,113.5 155.5,112.5 155.5,111.5C 156.5,111.5 157.5,111.5 158.5,111.5C 158.5,110.5 158.5,109.5 158.5,108.5C 160.5,108.5 162.5,108.5 164.5,108.5 Z"/></g>
<g><path style="opacity:1" fill="#11100e" d="M 103.5,111.5 C 103.5,113.167 103.5,114.833 103.5,116.5C 102.5,116.5 101.5,116.5 100.5,116.5C 100.5,114.833 100.5,113.167 100.5,111.5C 101.5,111.5 102.5,111.5 103.5,111.5 Z"/></g>
<g><path style="opacity:1" fill="#cb1d00" d="M 108.5,114.5 C 107.833,114.5 107.167,114.5 106.5,114.5C 107.167,110.5 107.833,110.5 108.5,114.5 Z"/></g>
<g><path style="opacity:1" fill="#c9c9c9" d="M 169.5,111.5 C 169.833,111.5 170.167,111.5 170.5,111.5C 170.5,112.5 170.5,113.5 170.5,114.5C 169.167,114.5 167.833,114.5 166.5,114.5C 166.5,113.5 166.5,112.5 166.5,111.5C 167.5,111.5 168.5,111.5 169.5,111.5 Z"/></g>
<g><path style="opacity:1" fill="#0f0f0f" d="M 106.5,114.5 C 107.167,114.5 107.833,114.5 108.5,114.5C 108.5,117.167 108.5,119.833 108.5,122.5C 109.5,122.5 110.5,122.5 111.5,122.5C 111.5,123.5 111.5,124.5 111.5,125.5C 111.5,126.5 111.5,127.5 111.5,128.5C 111.5,130.167 111.5,131.833 111.5,133.5C 109.744,132.448 109.077,130.781 109.5,128.5C 106.5,128.5 103.5,128.5 100.5,128.5C 100.5,127.5 100.5,126.5 100.5,125.5C 102.5,125.5 104.5,125.5 106.5,125.5C 106.5,121.833 106.5,118.167 106.5,114.5 Z"/></g>
<g><path style="opacity:1" fill="#606060" d="M 181.5,114.5 C 182.5,114.5 183.5,114.5 184.5,114.5C 184.5,115.5 184.5,116.5 184.5,117.5C 183.5,117.5 182.5,117.5 181.5,117.5C 181.5,116.5 181.5,115.5 181.5,114.5 Z"/></g>
<g><path style="opacity:1" fill="#000000" d="M 175.5,117.5 C 177.167,117.5 178.833,117.5 180.5,117.5C 179.448,119.256 177.781,119.923 175.5,119.5C 175.5,118.833 175.5,118.167 175.5,117.5 Z"/></g>
<g><path style="opacity:1" fill="#d43f22" d="M 100.5,117.5 C 100.5,119.167 100.5,120.833 100.5,122.5C 99.5,122.5 98.5,122.5 97.5,122.5C 97.5,120.833 97.5,119.167 97.5,117.5C 98.5,117.5 99.5,117.5 100.5,117.5 Z"/></g>
<g><path style="opacity:1" fill="#b12701" d="M 172.5,114.5 C 173.5,114.5 174.5,114.5 175.5,114.5C 175.5,115.5 175.5,116.5 175.5,117.5C 175.5,118.167 175.5,118.833 175.5,119.5C 175.5,119.833 175.5,120.167 175.5,120.5C 173.219,120.077 171.552,120.744 170.5,122.5C 170.167,122.5 169.833,122.5 169.5,122.5C 167.219,122.923 165.552,122.256 164.5,120.5C 164.5,120.167 164.5,119.833 164.5,119.5C 166.048,119.179 166.715,118.179 166.5,116.5C 169.082,116.975 171.082,116.308 172.5,114.5 Z"/></g>
<g><path style="opacity:1" fill="#140c06" d="M 164.5,120.5 C 165.552,122.256 167.219,122.923 169.5,122.5C 169.5,123.5 169.5,124.5 169.5,125.5C 167.833,125.5 166.167,125.5 164.5,125.5C 164.5,127.167 164.5,128.833 164.5,130.5C 163.5,130.5 162.5,130.5 161.5,130.5C 161.5,127.167 161.5,123.833 161.5,120.5C 162.5,120.5 163.5,120.5 164.5,120.5 Z"/></g>
<g><path style="opacity:1" fill="#000000" d="M 175.5,120.5 C 174.448,122.256 172.781,122.923 170.5,122.5C 171.552,120.744 173.219,120.077 175.5,120.5 Z"/></g>
<g><path style="opacity:1" fill="#291e1e" d="M 97.5,122.5 C 98.5,122.5 99.5,122.5 100.5,122.5C 100.5,123.5 100.5,124.5 100.5,125.5C 99.5,125.5 98.5,125.5 97.5,125.5C 97.5,124.5 97.5,123.5 97.5,122.5 Z"/></g>
<g><path style="opacity:1" fill="#be2f02" d="M 108.5,122.5 C 109.5,122.5 110.5,122.5 111.5,122.5C 111.5,123.5 111.5,124.5 111.5,125.5C 110.5,125.5 109.5,125.5 108.5,125.5C 108.5,124.5 108.5,123.5 108.5,122.5 Z"/></g>
<g><path style="opacity:1" fill="#fdfbf1" d="M 111.5,128.5 C 113.5,129.167 115.5,129.833 117.5,130.5C 118.167,132.5 118.833,134.5 119.5,136.5C 118.5,136.5 117.5,136.5 116.5,136.5C 115.833,136.5 115.167,136.5 114.5,136.5C 114.5,135.5 114.5,134.5 114.5,133.5C 113.5,133.5 112.5,133.5 111.5,133.5C 111.5,131.833 111.5,130.167 111.5,128.5 Z"/></g>
<g><path style="opacity:1" fill="#fcf8e7" d="M 147.5,136.5 C 145.833,136.5 144.167,136.5 142.5,136.5C 142.5,135.5 142.5,134.5 142.5,133.5C 141.5,133.5 140.5,133.5 139.5,133.5C 139.179,131.952 138.179,131.285 136.5,131.5C 136.5,130.5 136.5,129.5 136.5,128.5C 139.336,129.776 142.336,130.442 145.5,130.5C 146.167,132.5 146.833,134.5 147.5,136.5 Z"/></g>
<g><path style="opacity:1" fill="#070601" d="M 159.5,131.5 C 160.167,131.5 160.833,131.5 161.5,131.5C 161.5,133.167 161.5,134.833 161.5,136.5C 160.5,136.5 159.5,136.5 158.5,136.5C 158.923,138.781 158.256,140.448 156.5,141.5C 156.5,140.5 156.5,139.5 156.5,138.5C 155.5,138.5 154.5,138.5 153.5,138.5C 153.5,137.833 153.5,137.167 153.5,136.5C 154.167,136.5 154.833,136.5 155.5,136.5C 156.467,135.194 157.801,134.527 159.5,134.5C 159.5,133.5 159.5,132.5 159.5,131.5 Z"/></g>
<g><path style="opacity:1" fill="#786c15" d="M 159.5,131.5 C 159.5,132.5 159.5,133.5 159.5,134.5C 157.801,134.527 156.467,135.194 155.5,136.5C 155.5,135.5 155.5,134.5 155.5,133.5C 157.199,133.473 158.533,132.806 159.5,131.5 Z"/></g>
<g><path style="opacity:1" fill="#414141" d="M 111.5,133.5 C 112.5,133.5 113.5,133.5 114.5,133.5C 114.5,134.5 114.5,135.5 114.5,136.5C 113.5,136.5 112.5,136.5 111.5,136.5C 111.5,135.5 111.5,134.5 111.5,133.5 Z"/></g>
<g><path style="opacity:1" fill="#be7412" d="M 139.5,133.5 C 137.469,133.972 135.802,134.972 134.5,136.5C 134.167,136.5 133.833,136.5 133.5,136.5C 132.5,136.5 131.5,136.5 130.5,136.5C 130.5,135.5 130.5,134.5 130.5,133.5C 133.5,133.5 136.5,133.5 139.5,133.5 Z"/></g>
<g><path style="opacity:1" fill="#181818" d="M 139.5,133.5 C 140.5,133.5 141.5,133.5 142.5,133.5C 142.5,134.5 142.5,135.5 142.5,136.5C 139.833,136.5 137.167,136.5 134.5,136.5C 135.802,134.972 137.469,133.972 139.5,133.5 Z"/></g>
<g><path style="opacity:1" fill="#191919" d="M 114.5,136.5 C 115.167,136.5 115.833,136.5 116.5,136.5C 116.5,137.833 115.833,138.5 114.5,138.5C 114.5,137.833 114.5,137.167 114.5,136.5 Z"/></g>
<g><path style="opacity:1" fill="#190a01" d="M 130.5,136.5 C 131.5,136.5 132.5,136.5 133.5,136.5C 132.448,138.256 130.781,138.923 128.5,138.5C 128.5,137.167 129.167,136.5 130.5,136.5 Z"/></g>
<g><path style="opacity:1" fill="#161513" d="M 142.5,136.5 C 144.167,136.5 145.833,136.5 147.5,136.5C 148.5,136.5 149.5,136.5 150.5,136.5C 150.5,137.167 150.5,137.833 150.5,138.5C 149.5,138.5 148.5,138.5 147.5,138.5C 147.5,139.5 147.5,140.5 147.5,141.5C 145.952,141.179 145.285,140.179 145.5,138.5C 143.821,138.715 142.821,138.048 142.5,136.5 Z"/></g>
<g><path style="opacity:1" fill="#ca4705" d="M 150.5,136.5 C 151.5,136.5 152.5,136.5 153.5,136.5C 153.5,137.167 153.5,137.833 153.5,138.5C 152.5,139.833 151.5,139.833 150.5,138.5C 150.5,137.833 150.5,137.167 150.5,136.5 Z"/></g>
<g><path style="opacity:1" fill="#c35c11" d="M 116.5,136.5 C 117.5,136.5 118.5,136.5 119.5,136.5C 120.5,136.5 121.5,136.5 122.5,136.5C 122.5,137.5 122.5,138.5 122.5,139.5C 119.833,139.5 117.167,139.5 114.5,139.5C 114.5,139.167 114.5,138.833 114.5,138.5C 115.833,138.5 116.5,137.833 116.5,136.5 Z"/></g>
<g><path style="opacity:1" fill="#161204" d="M 114.5,139.5 C 114.5,140.167 114.5,140.833 114.5,141.5C 110.5,140.833 110.5,140.167 114.5,139.5 Z"/></g>
<g><path style="opacity:1" fill="#161617" d="M 128.5,139.5 C 128.179,141.048 127.179,141.715 125.5,141.5C 125.821,139.952 126.821,139.285 128.5,139.5 Z"/></g>
<g><path style="opacity:1" fill="#beab20" d="M 150.5,138.5 C 151.5,139.833 152.5,139.833 153.5,138.5C 154.5,138.5 155.5,138.5 156.5,138.5C 156.5,139.5 156.5,140.5 156.5,141.5C 155.833,141.5 155.5,141.833 155.5,142.5C 153.167,142.5 150.833,142.5 148.5,142.5C 148.5,141.833 148.167,141.5 147.5,141.5C 147.5,140.5 147.5,139.5 147.5,138.5C 148.5,138.5 149.5,138.5 150.5,138.5 Z"/></g>
<g><path style="opacity:1" fill="#000000" d="M 114.5,142.5 C 118.167,142.5 121.833,142.5 125.5,142.5C 124.129,143.787 122.295,144.453 120,144.5C 117.705,144.453 115.871,143.787 114.5,142.5 Z"/></g>
<g><path style="opacity:1" fill="#000000" d="M 148.5,142.5 C 150.833,142.5 153.167,142.5 155.5,142.5C 154.848,143.725 153.681,144.392 152,144.5C 150.319,144.392 149.152,143.725 148.5,142.5 Z"/></g>
</svg>
